<?xml version="1.0" encoding="UTF-8"?> <svg xmlns="http://www.w3.org/2000/svg" xmlns:xlink="http://www.w3.org/1999/xlink" width="22px" height="23px" viewBox="0 0 22 23"> <!-- Generator: Sketch 58 (84663) - https://sketch.com --> <title>Group 3</title> <desc>Created with Sketch.</desc> <g id="Page-1" stroke="none" stroke-width="1" fill="none" fill-rule="evenodd"> <g id="Desktop-HD" transform="translate(-285.000000, -848.000000)" fill="#EE3338" fill-rule="nonzero"> <g id="Group-3" transform="translate(285.000000, 848.000000)"> <path d="M20.7622232,9.06413537 C20.5535867,9.1254235 20.3327088,9.09993198 20.1421683,8.99254215 C19.9521601,8.88515232 19.8137788,8.70833877 19.7536361,8.49464386 C19.3635072,7.10725406 18.6556334,5.81044053 17.7066568,4.74522022 C16.71244,3.62901686 15.5005388,2.7926779 14.1039518,2.26115249 C11.7961768,1.38196607 9.28774887,1.47362708 7.03958432,2.51769485 C4.79141976,3.56122025 3.07815232,5.43186427 2.21539788,7.78359303 C1.35317568,10.1353218 1.44205908,12.6915251 2.46661324,14.9830505 C3.49169963,17.2740335 5.32738134,19.0193894 7.63515632,19.8991181 C12.4066514,21.7166096 17.7396554,19.2390504 19.5237102,14.3766776 C19.5992877,14.1689488 19.7509749,14.0035251 19.9489667,13.9118641 C20.1469585,13.8191183 20.3694331,13.8109827 20.572215,13.8890844 C20.9932136,14.0496268 21.2077047,14.5290844 21.0506951,14.9581013 C18.9520888,20.6790503 12.6775595,23.5932197 7.06406717,21.4551859 C1.45004262,19.3166097 -1.40966102,12.9225759 0.688413006,7.20162694 C1.70338692,4.43498294 3.71896437,2.23457622 6.36364469,1.00610167 C7.80493958,0.336271178 9.33777905,2.66453526e-14 10.8738119,2.66453526e-14 C12.155436,2.66453526e-14 13.4402536,0.234847452 14.6745087,0.705084728 C16.2941026,1.32230505 17.7598803,2.3327457 18.9137678,3.62901686 C20.0303988,4.88189818 20.8622836,6.40650831 21.3210709,8.03688116 C21.4450819,8.47728792 21.1943988,8.93884723 20.7622232,9.06413537" id="path60" transform="translate(10.676395, 11.078355) scale(-1, 1) rotate(-180.000000) translate(-10.676395, -11.078355) "></path> <path d="M10.0420336,7.57413845 C10.16019,7.38756219 10.3422147,7.25956219 10.5556413,7.21237575 C10.7690679,7.16464694 10.9867524,7.20586727 11.1693093,7.32573168 L16.391076,10.7546129 C16.6305822,10.9113587 16.770028,11.1782062 16.7652378,11.4683756 C16.7599155,11.7580028 16.6114217,12.0188841 16.3676576,12.1674943 L8.81522981,16.7483755 C8.56348222,16.9013247 8.24893079,16.9040365 7.99558649,16.7565111 C7.74117771,16.6089857 7.58363588,16.3329179 7.58363588,16.0346128 L7.58363588,6.49535882 C7.58363588,6.03705374 7.94928196,5.66498596 8.39848908,5.66498596 C8.84822844,5.66498596 9.21387452,6.03705374 9.21387452,6.49535882 L9.21387452,14.5729179 L14.4026426,11.4255282 L10.2863299,8.72234181 C9.90844241,8.47447741 9.7988018,7.95976556 10.0420336,7.57413845" id="path64" transform="translate(12.174497, 11.265072) scale(-1, 1) rotate(-180.000000) translate(-12.174497, -11.265072) "></path> </g> </g> </g> </svg> 